<mxfile host="app.diagrams.net" modified="2023-01-10T11:30:05.063Z" agent="5.0 (Macintosh; Intel Mac OS X 10_15_7) AppleWebKit/537.36 (KHTML, like Gecko) Chrome/108.0.0.0 Safari/537.36" version="20.8.3" etag="Arr__oADjQWZsjJEOOVw" type="github">
  <diagram id="rLf4FXjszSzX-VlUV55J" name="第 1 页">
    <mxGraphModel dx="1536" dy="900" grid="1" gridSize="10" guides="1" tooltips="1" connect="1" arrows="1" fold="1" page="1" pageScale="1" pageWidth="827" pageHeight="1169" math="0" shadow="0">
      <root>
        <mxCell id="0" />
        <mxCell id="1" parent="0" />
        <mxCell id="-ezdxLTPiOgHRn06xlRN-1" value="" style="rounded=0;whiteSpace=wrap;html=1;dashed=1;" vertex="1" parent="1">
          <mxGeometry x="220" y="220" width="970" height="410" as="geometry" />
        </mxCell>
        <mxCell id="-ezdxLTPiOgHRn06xlRN-2" value="" style="rounded=0;whiteSpace=wrap;html=1;fillColor=#f5f5f5;strokeColor=#666666;fontColor=#333333;" vertex="1" parent="1">
          <mxGeometry x="220" y="127" width="970" height="70" as="geometry" />
        </mxCell>
        <mxCell id="-ezdxLTPiOgHRn06xlRN-3" value="&lt;font style=&quot;font-size: 18px;&quot;&gt;业务应用&lt;/font&gt;" style="text;html=1;strokeColor=none;fillColor=none;align=center;verticalAlign=middle;whiteSpace=wrap;rounded=0;fontSize=18;" vertex="1" parent="1">
          <mxGeometry x="120" y="149.5" width="80" height="25" as="geometry" />
        </mxCell>
        <mxCell id="-ezdxLTPiOgHRn06xlRN-4" value="" style="rounded=0;whiteSpace=wrap;html=1;fillColor=#d5e8d4;strokeColor=#82b366;" vertex="1" parent="1">
          <mxGeometry x="243" y="238" width="717" height="82" as="geometry" />
        </mxCell>
        <mxCell id="-ezdxLTPiOgHRn06xlRN-5" value="&lt;font style=&quot;font-size: 16px&quot;&gt;服务接口层&lt;/font&gt;" style="text;html=1;strokeColor=none;fillColor=none;align=center;verticalAlign=middle;whiteSpace=wrap;rounded=0;" vertex="1" parent="1">
          <mxGeometry x="248" y="269.25" width="110" height="27.5" as="geometry" />
        </mxCell>
        <mxCell id="-ezdxLTPiOgHRn06xlRN-6" value="" style="rounded=0;whiteSpace=wrap;html=1;fillColor=#f5f5f5;strokeColor=#666666;fontColor=#333333;" vertex="1" parent="1">
          <mxGeometry x="243" y="430" width="717" height="90" as="geometry" />
        </mxCell>
        <mxCell id="-ezdxLTPiOgHRn06xlRN-7" value="&lt;font style=&quot;font-size: 16px&quot;&gt;服务存储层&lt;/font&gt;" style="text;html=1;strokeColor=none;fillColor=none;align=center;verticalAlign=middle;whiteSpace=wrap;rounded=0;" vertex="1" parent="1">
          <mxGeometry x="243" y="461.25" width="110" height="27.5" as="geometry" />
        </mxCell>
        <mxCell id="-ezdxLTPiOgHRn06xlRN-8" value="" style="rounded=0;whiteSpace=wrap;html=1;fillColor=#fff2cc;strokeColor=#d6b656;" vertex="1" parent="1">
          <mxGeometry x="220" y="651" width="970" height="70" as="geometry" />
        </mxCell>
        <mxCell id="-ezdxLTPiOgHRn06xlRN-9" value="&lt;span style=&quot;font-size: 18px;&quot;&gt;数据资产&lt;/span&gt;" style="text;html=1;strokeColor=none;fillColor=none;align=center;verticalAlign=middle;whiteSpace=wrap;rounded=0;fontSize=18;" vertex="1" parent="1">
          <mxGeometry x="105" y="668.5" width="110" height="27.5" as="geometry" />
        </mxCell>
        <mxCell id="-ezdxLTPiOgHRn06xlRN-10" value="&lt;span&gt;Data Warehouse&lt;/span&gt;" style="rounded=0;whiteSpace=wrap;html=1;fillColor=#f5f5f5;strokeColor=#666666;fontColor=#333333;" vertex="1" parent="1">
          <mxGeometry x="220" y="741" width="970" height="60" as="geometry" />
        </mxCell>
        <mxCell id="-ezdxLTPiOgHRn06xlRN-11" value="&lt;span style=&quot;font-size: 18px;&quot;&gt;数据开发&lt;/span&gt;" style="text;html=1;strokeColor=none;fillColor=none;align=center;verticalAlign=middle;whiteSpace=wrap;rounded=0;fontSize=18;" vertex="1" parent="1">
          <mxGeometry x="105" y="762.25" width="110" height="27.5" as="geometry" />
        </mxCell>
        <mxCell id="-ezdxLTPiOgHRn06xlRN-12" value="&lt;font style=&quot;font-size: 14px&quot;&gt;在线业务&lt;/font&gt;" style="rounded=1;whiteSpace=wrap;html=1;" vertex="1" parent="1">
          <mxGeometry x="391.5" y="144.5" width="100" height="35" as="geometry" />
        </mxCell>
        <mxCell id="-ezdxLTPiOgHRn06xlRN-13" value="&lt;font style=&quot;font-size: 14px&quot;&gt;弱在线业务&lt;/font&gt;" style="rounded=1;whiteSpace=wrap;html=1;" vertex="1" parent="1">
          <mxGeometry x="643" y="144.5" width="100" height="35" as="geometry" />
        </mxCell>
        <mxCell id="-ezdxLTPiOgHRn06xlRN-14" value="&lt;font style=&quot;font-size: 14px&quot;&gt;离线业务&lt;/font&gt;" style="rounded=1;whiteSpace=wrap;html=1;" vertex="1" parent="1">
          <mxGeometry x="910" y="144.5" width="100" height="35" as="geometry" />
        </mxCell>
        <mxCell id="-ezdxLTPiOgHRn06xlRN-15" value="&lt;span style=&quot;font-size: 14px&quot;&gt;KV查询&lt;/span&gt;" style="rounded=1;whiteSpace=wrap;html=1;fillColor=#f8cecc;strokeColor=#b85450;gradientColor=#ea6b66;" vertex="1" parent="1">
          <mxGeometry x="358" y="265.5" width="167" height="35" as="geometry" />
        </mxCell>
        <mxCell id="-ezdxLTPiOgHRn06xlRN-16" value="&lt;span style=&quot;font-size: 14px&quot;&gt;SQL查询&lt;/span&gt;" style="rounded=1;whiteSpace=wrap;html=1;" vertex="1" parent="1">
          <mxGeometry x="543" y="265.5" width="180" height="35" as="geometry" />
        </mxCell>
        <mxCell id="-ezdxLTPiOgHRn06xlRN-17" value="&lt;span style=&quot;font-size: 14px&quot;&gt;公共服务&lt;/span&gt;" style="rounded=1;whiteSpace=wrap;html=1;" vertex="1" parent="1">
          <mxGeometry x="740" y="265.5" width="153" height="35" as="geometry" />
        </mxCell>
        <mxCell id="-ezdxLTPiOgHRn06xlRN-18" value="&lt;span style=&quot;font-size: 14px&quot;&gt;画像标签&lt;/span&gt;" style="rounded=1;whiteSpace=wrap;html=1;" vertex="1" parent="1">
          <mxGeometry x="253" y="668.5" width="100" height="35" as="geometry" />
        </mxCell>
        <mxCell id="-ezdxLTPiOgHRn06xlRN-19" value="&lt;font style=&quot;font-size: 14px&quot;&gt;用户分群&lt;/font&gt;" style="rounded=1;whiteSpace=wrap;html=1;" vertex="1" parent="1">
          <mxGeometry x="450" y="668.5" width="100" height="35" as="geometry" />
        </mxCell>
        <mxCell id="-ezdxLTPiOgHRn06xlRN-20" value="&lt;font style=&quot;font-size: 14px&quot;&gt;创作数据&lt;/font&gt;" style="rounded=1;whiteSpace=wrap;html=1;" vertex="1" parent="1">
          <mxGeometry x="640" y="668.5" width="100" height="35" as="geometry" />
        </mxCell>
        <mxCell id="-ezdxLTPiOgHRn06xlRN-21" value="&lt;font style=&quot;font-size: 14px&quot;&gt;消费数据&lt;/font&gt;" style="rounded=1;whiteSpace=wrap;html=1;" vertex="1" parent="1">
          <mxGeometry x="840" y="668.5" width="100" height="35" as="geometry" />
        </mxCell>
        <mxCell id="-ezdxLTPiOgHRn06xlRN-22" value="&lt;font style=&quot;font-size: 14px&quot;&gt;社交数据&lt;/font&gt;" style="rounded=1;whiteSpace=wrap;html=1;" vertex="1" parent="1">
          <mxGeometry x="1050" y="668.5" width="100" height="35" as="geometry" />
        </mxCell>
        <mxCell id="-ezdxLTPiOgHRn06xlRN-23" value="&lt;font style=&quot;font-size: 18px;&quot;&gt;API服务&lt;/font&gt;" style="text;html=1;strokeColor=none;fillColor=none;align=center;verticalAlign=middle;whiteSpace=wrap;rounded=0;fontSize=18;" vertex="1" parent="1">
          <mxGeometry x="125" y="412.5" width="70" height="25" as="geometry" />
        </mxCell>
        <mxCell id="-ezdxLTPiOgHRn06xlRN-24" value="" style="rounded=0;whiteSpace=wrap;html=1;fillColor=#ffe6cc;strokeColor=#d79b00;" vertex="1" parent="1">
          <mxGeometry x="243" y="530" width="717" height="90" as="geometry" />
        </mxCell>
        <mxCell id="-ezdxLTPiOgHRn06xlRN-25" value="&lt;font style=&quot;font-size: 16px&quot;&gt;服务加速层&lt;/font&gt;" style="text;html=1;strokeColor=none;fillColor=none;align=center;verticalAlign=middle;whiteSpace=wrap;rounded=0;" vertex="1" parent="1">
          <mxGeometry x="243" y="561.25" width="110" height="27.5" as="geometry" />
        </mxCell>
        <mxCell id="-ezdxLTPiOgHRn06xlRN-26" value="&lt;span style=&quot;font-size: 14px&quot;&gt;数据同步&lt;/span&gt;" style="rounded=1;whiteSpace=wrap;html=1;" vertex="1" parent="1">
          <mxGeometry x="430" y="557.5" width="156" height="31.25" as="geometry" />
        </mxCell>
        <mxCell id="-ezdxLTPiOgHRn06xlRN-27" value="&lt;span style=&quot;font-size: 14px&quot;&gt;数据质检&lt;/span&gt;" style="rounded=1;whiteSpace=wrap;html=1;" vertex="1" parent="1">
          <mxGeometry x="680" y="556.25" width="160" height="32.5" as="geometry" />
        </mxCell>
        <mxCell id="-ezdxLTPiOgHRn06xlRN-28" value="" style="rounded=0;whiteSpace=wrap;html=1;fillColor=#d5e8d4;strokeColor=#82b366;" vertex="1" parent="1">
          <mxGeometry x="243" y="332.5" width="717" height="87.5" as="geometry" />
        </mxCell>
        <mxCell id="-ezdxLTPiOgHRn06xlRN-29" value="&lt;font style=&quot;font-size: 16px&quot;&gt;服务查询层&lt;/font&gt;" style="text;html=1;strokeColor=none;fillColor=none;align=center;verticalAlign=middle;whiteSpace=wrap;rounded=0;" vertex="1" parent="1">
          <mxGeometry x="248" y="363.75" width="110" height="27.5" as="geometry" />
        </mxCell>
        <mxCell id="-ezdxLTPiOgHRn06xlRN-30" value="&lt;span style=&quot;font-size: 14px&quot;&gt;统一查询&lt;/span&gt;" style="rounded=1;whiteSpace=wrap;html=1;" vertex="1" parent="1">
          <mxGeometry x="358" y="360" width="180" height="35" as="geometry" />
        </mxCell>
        <mxCell id="-ezdxLTPiOgHRn06xlRN-31" value="&lt;span style=&quot;font-size: 14px&quot;&gt;统一鉴权&lt;/span&gt;" style="rounded=1;whiteSpace=wrap;html=1;" vertex="1" parent="1">
          <mxGeometry x="560" y="360" width="180" height="35" as="geometry" />
        </mxCell>
        <mxCell id="-ezdxLTPiOgHRn06xlRN-32" value="&lt;span style=&quot;font-size: 14px&quot;&gt;多级缓存&lt;/span&gt;" style="rounded=1;whiteSpace=wrap;html=1;" vertex="1" parent="1">
          <mxGeometry x="760" y="360" width="180" height="35" as="geometry" />
        </mxCell>
        <mxCell id="-ezdxLTPiOgHRn06xlRN-33" value="Redis" style="shape=cylinder;whiteSpace=wrap;html=1;boundedLbl=1;backgroundOutline=1;fillColor=#f5f5f5;strokeColor=#666666;gradientColor=#b3b3b3;" vertex="1" parent="1">
          <mxGeometry x="365" y="457.5" width="97" height="35" as="geometry" />
        </mxCell>
        <mxCell id="-ezdxLTPiOgHRn06xlRN-34" value="Hbase" style="shape=cylinder;whiteSpace=wrap;html=1;boundedLbl=1;backgroundOutline=1;fillColor=#f5f5f5;strokeColor=#666666;gradientColor=#b3b3b3;" vertex="1" parent="1">
          <mxGeometry x="520" y="457.5" width="97" height="35" as="geometry" />
        </mxCell>
        <mxCell id="-ezdxLTPiOgHRn06xlRN-35" value="KIWI" style="shape=cylinder;whiteSpace=wrap;html=1;boundedLbl=1;backgroundOutline=1;fillColor=#f5f5f5;strokeColor=#666666;gradientColor=#b3b3b3;" vertex="1" parent="1">
          <mxGeometry x="680" y="457.5" width="97" height="35" as="geometry" />
        </mxCell>
        <mxCell id="-ezdxLTPiOgHRn06xlRN-36" value="CK" style="shape=cylinder;whiteSpace=wrap;html=1;boundedLbl=1;backgroundOutline=1;gradientColor=#b3b3b3;fillColor=#f5f5f5;strokeColor=#666666;" vertex="1" parent="1">
          <mxGeometry x="830" y="457.5" width="97" height="35" as="geometry" />
        </mxCell>
        <mxCell id="-ezdxLTPiOgHRn06xlRN-37" value="" style="rounded=0;whiteSpace=wrap;html=1;fillColor=#d5e8d4;strokeColor=#82b366;" vertex="1" parent="1">
          <mxGeometry x="970" y="238" width="210" height="382" as="geometry" />
        </mxCell>
        <mxCell id="-ezdxLTPiOgHRn06xlRN-38" value="&lt;font style=&quot;font-size: 15px&quot;&gt;全域保障&lt;/font&gt;" style="text;html=1;strokeColor=none;fillColor=none;align=center;verticalAlign=middle;whiteSpace=wrap;rounded=0;" vertex="1" parent="1">
          <mxGeometry x="1035" y="249.25" width="80" height="20" as="geometry" />
        </mxCell>
        <mxCell id="-ezdxLTPiOgHRn06xlRN-39" value="全链路监控" style="rounded=0;whiteSpace=wrap;html=1;" vertex="1" parent="1">
          <mxGeometry x="990" y="273.75" width="170" height="46.25" as="geometry" />
        </mxCell>
        <mxCell id="-ezdxLTPiOgHRn06xlRN-40" value="降采样" style="rounded=0;whiteSpace=wrap;html=1;" vertex="1" parent="1">
          <mxGeometry x="990" y="330" width="170" height="47.5" as="geometry" />
        </mxCell>
        <mxCell id="-ezdxLTPiOgHRn06xlRN-41" value="保护限写" style="rounded=0;whiteSpace=wrap;html=1;" vertex="1" parent="1">
          <mxGeometry x="990" y="390" width="170" height="47.5" as="geometry" />
        </mxCell>
        <mxCell id="-ezdxLTPiOgHRn06xlRN-42" value="限流降级" style="rounded=0;whiteSpace=wrap;html=1;" vertex="1" parent="1">
          <mxGeometry x="990" y="445" width="170" height="47.5" as="geometry" />
        </mxCell>
        <mxCell id="-ezdxLTPiOgHRn06xlRN-43" value="限流降级" style="rounded=0;whiteSpace=wrap;html=1;" vertex="1" parent="1">
          <mxGeometry x="990" y="500" width="170" height="47.5" as="geometry" />
        </mxCell>
        <mxCell id="-ezdxLTPiOgHRn06xlRN-44" value="动态路由" style="rounded=0;whiteSpace=wrap;html=1;" vertex="1" parent="1">
          <mxGeometry x="990" y="557.5" width="170" height="47.5" as="geometry" />
        </mxCell>
      </root>
    </mxGraphModel>
  </diagram>
</mxfile>
